<?xml version="1.0" encoding="utf-8"?>
<svg width="625" height="153" viewBox="0 0 625 153" fill="none" xmlns="http://www.w3.org/2000/svg">
  <path d="M212.167 94.2417H217.175C221.768 94.2417 225.059 92.8566 227.048 90.0863C229.037 87.2923 230.032 82.6633 230.032 76.1992C230.032 69.6168 229.037 64.9759 227.048 62.2767C225.059 59.5774 221.65 58.2278 216.819 58.2278H212.167V94.2417ZM191.354 100.635V94.2417H194.053C195.947 94.2417 197.155 94.005 197.676 93.5314C198.22 93.0579 198.493 91.8858 198.493 90.0153V62.4542C198.493 60.56 198.22 59.388 197.676 58.9381C197.155 58.4645 195.947 58.2278 194.053 58.2278H191.354V51.8347H217.175C226.906 51.8347 234.128 53.8355 238.84 57.8371C243.552 61.8386 245.908 67.9593 245.908 76.1992C245.908 84.4628 243.54 90.6072 238.804 94.6324C234.092 98.634 226.883 100.635 217.175 100.635H191.354ZM273.398 96.6214C271.859 98.4209 270.095 99.7587 268.106 100.635C266.14 101.511 263.926 101.949 261.464 101.949C258.102 101.949 255.426 101.061 253.437 99.2851C251.448 97.4856 250.454 95.0942 250.454 92.1107C250.454 89.3404 251.259 87.2213 252.869 85.7532C254.479 84.2615 257.829 82.9711 262.92 81.8819C267.23 80.9585 269.929 80.0587 271.018 79.1826C272.107 78.2829 272.652 76.9688 272.652 75.2403C272.652 73.5828 271.989 72.2569 270.663 71.2624C269.337 70.2443 267.549 69.7352 265.3 69.7352C264.069 69.7352 263.015 69.8536 262.139 70.0904C261.263 70.3035 260.481 70.6586 259.795 71.1559C261.073 71.2506 262.103 71.6768 262.885 72.4345C263.666 73.1921 264.057 74.1274 264.057 75.2403C264.057 76.6136 263.524 77.7501 262.458 78.6499C261.393 79.526 260.02 79.964 258.339 79.964C256.444 79.964 254.917 79.4549 253.757 78.4368C252.62 77.4186 252.052 76.0927 252.052 74.4589C252.052 71.4992 253.496 69.2024 256.385 67.5687C259.297 65.9112 263.358 65.0825 268.567 65.0825C271.125 65.0825 273.445 65.3193 275.529 65.7928C277.612 66.2427 279.246 66.8702 280.43 67.6752C281.803 68.6223 282.762 69.6878 283.307 70.8717C283.875 72.0319 284.159 73.9972 284.159 76.7675V77.7265V90.9742C284.159 92.0871 284.301 92.9158 284.585 93.4604C284.893 93.9813 285.379 94.2417 286.042 94.2417C286.705 94.2417 287.166 93.9931 287.427 93.4959C287.711 92.9987 287.853 92.1581 287.853 90.9742V87.9908H292.222V91.3294C292.222 94.9994 291.416 97.6869 289.806 99.3917C288.196 101.096 285.651 101.949 282.17 101.949C279.897 101.949 278.015 101.499 276.523 100.599C275.055 99.6995 274.013 98.3735 273.398 96.6214ZM272.439 83.6933C271.515 84.1668 270.26 84.7825 268.674 85.5401C264.885 87.387 262.991 89.1155 262.991 90.7256C262.991 91.8858 263.394 92.8211 264.199 93.5314C265.004 94.2417 266.057 94.5969 267.36 94.5969C268.946 94.5969 270.189 94.0878 271.089 93.0697C271.989 92.0515 272.439 90.619 272.439 88.7722V83.6933ZM299.787 72.1858H294.921V66.7518C297.738 66.4203 299.964 65.0825 301.598 62.7384C303.232 60.3706 304.214 57.1031 304.546 52.9358H311.72V66.2901H320.528V72.1858H311.72V91.1873C311.72 92.5843 311.945 93.6261 312.395 94.3128C312.869 94.9758 313.567 95.3073 314.491 95.3073C315.651 95.3073 316.444 94.8219 316.87 93.8511C317.32 92.8566 317.545 90.7729 317.545 87.6001V84.4036H323.441V89.518C323.441 93.78 322.458 96.941 320.493 99.001C318.551 101.061 315.556 102.091 311.507 102.091C307.292 102.091 304.285 101.073 302.486 99.0365C300.686 96.9765 299.787 93.4367 299.787 88.417V72.1858ZM352.245 96.6214C350.706 98.4209 348.942 99.7587 346.953 100.635C344.988 101.511 342.774 101.949 340.311 101.949C336.949 101.949 334.273 101.061 332.284 99.2851C330.295 97.4856 329.301 95.0942 329.301 92.1107C329.301 89.3404 330.106 87.2213 331.716 85.7532C333.326 84.2615 336.677 82.9711 341.767 81.8819C346.077 80.9585 348.776 80.0587 349.865 79.1826C350.954 78.2829 351.499 76.9688 351.499 75.2403C351.499 73.5828 350.836 72.2569 349.51 71.2624C348.184 70.2443 346.396 69.7352 344.147 69.7352C342.916 69.7352 341.862 69.8536 340.986 70.0904C340.11 70.3035 339.329 70.6586 338.642 71.1559C339.921 71.2506 340.951 71.6768 341.732 72.4345C342.513 73.1921 342.904 74.1274 342.904 75.2403C342.904 76.6136 342.371 77.7501 341.306 78.6499C340.24 79.526 338.867 79.964 337.186 79.964C335.292 79.964 333.764 79.4549 332.604 78.4368C331.468 77.4186 330.899 76.0927 330.899 74.4589C330.899 71.4992 332.344 69.2024 335.232 67.5687C338.145 65.9112 342.205 65.0825 347.415 65.0825C349.972 65.0825 352.292 65.3193 354.376 65.7928C356.459 66.2427 358.093 66.8702 359.277 67.6752C360.65 68.6223 361.609 69.6878 362.154 70.8717C362.722 72.0319 363.006 73.9972 363.006 76.7675V77.7265V90.9742C363.006 92.0871 363.148 92.9158 363.433 93.4604C363.74 93.9813 364.226 94.2417 364.889 94.2417C365.552 94.2417 366.014 93.9931 366.274 93.4959C366.558 92.9987 366.7 92.1581 366.7 90.9742V87.9908H371.069V91.3294C371.069 94.9994 370.264 97.6869 368.654 99.3917C367.043 101.096 364.498 101.949 361.017 101.949C358.744 101.949 356.862 101.499 355.37 100.599C353.902 99.6995 352.86 98.3735 352.245 96.6214ZM351.286 83.6933C350.362 84.1668 349.108 84.7825 347.521 85.5401C343.733 87.387 341.838 89.1155 341.838 90.7256C341.838 91.8858 342.241 92.8211 343.046 93.5314C343.851 94.2417 344.905 94.5969 346.207 94.5969C347.793 94.5969 349.036 94.0878 349.936 93.0697C350.836 92.0515 351.286 90.619 351.286 88.7722V83.6933ZM386.199 100.635L378.634 77.5134C377.971 75.4534 377.272 74.0801 376.538 73.3934C375.804 72.6831 374.786 72.3279 373.484 72.3279H372.667V66.2901H394.368V72.3279H393.054C391.467 72.3279 390.496 72.4463 390.141 72.6831C389.81 72.8962 389.644 73.3105 389.644 73.9262C389.644 74.1393 389.679 74.4352 389.751 74.8141C389.845 75.1929 389.975 75.6073 390.141 76.0572L395.54 92.5014L401.045 76.5544C401.258 75.9861 401.424 75.4652 401.542 74.9917C401.66 74.5181 401.72 74.1393 401.72 73.8551C401.72 73.3342 401.483 72.9554 401.009 72.7186C400.559 72.4581 399.849 72.3279 398.878 72.3279H397.422V66.2901H413.937V72.2569H412.552C411.345 72.2569 410.433 72.5292 409.818 73.0738C409.226 73.5947 408.539 74.9443 407.758 77.1227L399.447 100.635H386.199ZM421.929 76.6254V76.1992C421.929 74.376 421.716 73.275 421.289 72.8962C420.887 72.5173 420.011 72.3279 418.661 72.3279H416.317V66.2901H434.218V91.3294C434.218 92.7737 434.419 93.709 434.821 94.1352C435.248 94.5377 436.135 94.739 437.485 94.739H439.296V100.635H416.317V94.739H418.519C419.916 94.739 420.828 94.5377 421.254 94.1352C421.704 93.709 421.929 92.7737 421.929 91.3294V76.6254ZM421.325 57.4109C421.325 55.7534 421.917 54.3446 423.101 53.1844C424.285 52.0005 425.705 51.4085 427.363 51.4085C429.044 51.4085 430.465 52.0005 431.625 53.1844C432.809 54.3446 433.401 55.7534 433.401 57.4109C433.401 59.092 432.809 60.5245 431.625 61.7084C430.465 62.8686 429.044 63.4487 427.363 63.4487C425.658 63.4487 424.225 62.8804 423.065 61.7439C421.905 60.5837 421.325 59.1393 421.325 57.4109ZM459.683 51.8347V91.3294C459.683 92.8448 459.884 93.7919 460.287 94.1707C460.713 94.5496 461.613 94.739 462.986 94.739H464.94V100.635H442.031V94.739H443.985C445.382 94.739 446.293 94.5377 446.719 94.1352C447.169 93.709 447.394 92.7737 447.394 91.3294V62.028C447.394 60.1101 447.205 58.9144 446.826 58.4409C446.447 57.9673 445.547 57.7305 444.127 57.7305H442.031V51.8347H459.683ZM485.042 51.8347V91.3294C485.042 92.8448 485.243 93.7919 485.646 94.1707C486.072 94.5496 486.972 94.739 488.345 94.739H490.298V100.635H467.39V94.739H469.344C470.741 94.739 471.652 94.5377 472.078 94.1352C472.528 93.709 472.753 92.7737 472.753 91.3294V62.028C472.753 60.1101 472.564 58.9144 472.185 58.4409C471.806 57.9673 470.906 57.7305 469.486 57.7305H467.39V51.8347H485.042ZM516.758 96.6214C515.219 98.4209 513.455 99.7587 511.466 100.635C509.501 101.511 507.287 101.949 504.825 101.949C501.463 101.949 498.787 101.061 496.798 99.2851C494.809 97.4856 493.815 95.0942 493.815 92.1107C493.815 89.3404 494.62 87.2213 496.23 85.7532C497.84 84.2615 501.19 82.9711 506.281 81.8819C510.59 80.9585 513.29 80.0587 514.379 79.1826C515.468 78.2829 516.013 76.9688 516.013 75.2403C516.013 73.5828 515.35 72.2569 514.024 71.2624C512.698 70.2443 510.91 69.7352 508.661 69.7352C507.429 69.7352 506.376 69.8536 505.5 70.0904C504.624 70.3035 503.842 70.6586 503.156 71.1559C504.434 71.2506 505.464 71.6768 506.246 72.4345C507.027 73.1921 507.418 74.1274 507.418 75.2403C507.418 76.6136 506.885 77.7501 505.819 78.6499C504.754 79.526 503.381 79.964 501.699 79.964C499.805 79.964 498.278 79.4549 497.118 78.4368C495.981 77.4186 495.413 76.0927 495.413 74.4589C495.413 71.4992 496.857 69.2024 499.746 67.5687C502.658 65.9112 506.719 65.0825 511.928 65.0825C514.485 65.0825 516.806 65.3193 518.889 65.7928C520.973 66.2427 522.607 66.8702 523.791 67.6752C525.164 68.6223 526.123 69.6878 526.668 70.8717C527.236 72.0319 527.52 73.9972 527.52 76.7675V77.7265V90.9742C527.52 92.0871 527.662 92.9158 527.946 93.4604C528.254 93.9813 528.739 94.2417 529.402 94.2417C530.065 94.2417 530.527 93.9931 530.788 93.4959C531.072 92.9987 531.214 92.1581 531.214 90.9742V87.9908H535.582V91.3294C535.582 94.9994 534.777 97.6869 533.167 99.3917C531.557 101.096 529.012 101.949 525.531 101.949C523.258 101.949 521.376 101.499 519.884 100.599C518.416 99.6995 517.374 98.3735 516.758 96.6214ZM515.8 83.6933C514.876 84.1668 513.621 84.7825 512.035 85.5401C508.246 87.387 506.352 89.1155 506.352 90.7256C506.352 91.8858 506.755 92.8211 507.56 93.5314C508.365 94.2417 509.418 94.5969 510.721 94.5969C512.307 94.5969 513.55 94.0878 514.45 93.0697C515.35 92.0515 515.8 90.619 515.8 88.7722V83.6933ZM556.395 87.7777C557.887 87.7777 558.952 87.0792 559.592 85.6822C560.231 84.2615 560.551 81.8227 560.551 78.3658C560.551 75.1929 560.231 72.9554 559.592 71.6531C558.976 70.3271 557.934 69.6641 556.466 69.6641C554.998 69.6641 553.933 70.3745 553.27 71.7952C552.63 73.2158 552.311 75.631 552.311 79.0406C552.311 82.024 552.642 84.226 553.305 85.6467C553.968 87.0674 554.998 87.7777 556.395 87.7777ZM547.587 108.484C547.587 109.455 548.487 110.177 550.286 110.65C552.086 111.148 554.726 111.396 558.207 111.396C562.232 111.396 565.109 111.148 566.837 110.65C568.566 110.177 569.43 109.384 569.43 108.271C569.43 107.253 568.696 106.531 567.228 106.104C565.76 105.702 563.001 105.501 558.952 105.501C554.454 105.501 551.435 105.714 549.896 106.14C548.357 106.59 547.587 107.371 547.587 108.484ZM544.994 89.1984C543.503 87.6593 542.402 86.0492 541.691 84.3681C540.981 82.687 540.626 80.8874 540.626 78.9695C540.626 74.5655 542.058 71.1322 544.923 68.6697C547.788 66.2072 551.778 64.9759 556.892 64.9759C559.023 64.9759 560.977 65.2601 562.753 65.8283C564.529 66.3729 566.221 67.2135 567.832 68.35C569.11 67.2135 570.389 66.3729 571.667 65.8283C572.946 65.2601 574.26 64.9759 575.61 64.9759C577.978 64.9759 579.907 65.6626 581.399 67.0359C582.914 68.3855 583.672 70.1259 583.672 72.2569C583.672 73.8196 583.222 75.0745 582.322 76.0217C581.446 76.9688 580.274 77.4423 578.806 77.4423C577.48 77.4423 576.356 77.0398 575.432 76.2348C574.532 75.4297 574.083 74.4708 574.083 73.3579C574.083 72.6476 574.236 71.9846 574.544 71.369C574.852 70.7297 575.326 70.1022 575.965 69.4866C575.728 69.2024 575.456 68.9893 575.148 68.8473C574.864 68.7052 574.58 68.6342 574.296 68.6342C573.727 68.6342 573.088 68.8354 572.378 69.2379C571.667 69.6405 570.898 70.2324 570.069 71.0138C570.874 72.0793 571.478 73.2632 571.88 74.5655C572.283 75.8677 572.484 77.2884 572.484 78.8275C572.484 83.0185 570.981 86.357 567.974 88.8432C564.967 91.3294 560.918 92.5725 555.827 92.5725C554.643 92.5725 553.435 92.4659 552.204 92.2528C550.973 92.016 549.73 91.6845 548.475 91.2583C547.978 91.5425 547.611 91.8503 547.374 92.1818C547.137 92.5133 547.019 92.8803 547.019 93.2828C547.019 94.2773 547.634 94.9639 548.866 95.3428C550.121 95.7216 553.021 95.911 557.567 95.911C558.538 95.911 559.852 95.8992 561.51 95.8755C563.191 95.8518 564.375 95.84 565.061 95.84C569.371 95.84 572.614 96.6332 574.793 98.2196C576.971 99.806 578.06 102.162 578.06 105.287C578.06 109.242 576.427 112.095 573.159 113.847C569.915 115.599 564.493 116.475 556.892 116.475C550.76 116.475 546.19 115.883 543.183 114.699C540.2 113.516 538.708 111.716 538.708 109.301C538.708 107.88 539.181 106.684 540.129 105.714C541.099 104.767 542.544 104.044 544.462 103.547C542.709 102.6 541.407 101.511 540.555 100.28C539.726 99.0247 539.312 97.5685 539.312 95.911C539.312 94.4904 539.773 93.2354 540.697 92.1463C541.644 91.0334 543.076 90.0508 544.994 89.1984ZM598.269 79.0761L609.457 79.1116V78.8275C609.457 76.4123 608.972 74.5891 608.001 73.3579C607.054 72.103 605.645 71.4755 603.775 71.4755C602.046 71.4755 600.708 72.1266 599.761 73.4289C598.814 74.7312 598.317 76.6136 598.269 79.0761ZM612.512 89.0208L621.178 88.9853C620.089 93.2473 618.076 96.4675 615.14 98.6458C612.228 100.801 608.439 101.878 603.775 101.878C598.258 101.878 593.806 100.22 590.42 96.9055C587.058 93.5906 585.377 89.2339 585.377 83.8353C585.377 78.0816 586.999 73.5473 590.243 70.2324C593.51 66.8938 597.926 65.2246 603.49 65.2246C609.244 65.2246 613.719 66.8465 616.916 70.0904C620.136 73.3342 621.746 77.8685 621.746 83.6933V85.0074H598.127V85.5757C598.127 88.7248 598.707 91.0926 599.868 92.679C601.052 94.2417 602.816 95.0231 605.16 95.0231C607.314 95.0231 609.019 94.5022 610.274 93.4604C611.553 92.4186 612.299 90.9387 612.512 89.0208Z" fill="#FFFFFF"/>
  <g clip-path="url(#clip0)">
    <path d="M132.141 33.2165L76.4767 1.79891C72.2254 -0.583686 67.0398 -0.583686 62.7885 1.79891L57.6729 4.67204L7.10115 33.2165C2.73306 35.6925 0.0234375 40.3175 0.0234375 45.3163V107.661C0.0234375 112.66 2.73306 117.308 7.10115 119.761L62.7651 151.202C67.0164 153.584 72.2021 153.584 76.4534 151.202L81.4755 148.352L132.117 119.761C136.485 117.308 139.195 112.706 139.195 107.684V45.3163C139.218 40.3175 136.509 35.6691 132.141 33.2165ZM107.334 106.283C106.306 120.789 93.7622 132.304 78.9294 132.304H73.0897C71.1743 132.304 69.6092 130.739 69.6092 128.824V79.9808C69.6092 78.0653 68.0442 76.5003 66.1288 76.5003H59.7285C44.4752 76.5003 32.1184 64.307 31.8147 49.1472C31.7914 48.2829 31.8147 47.442 31.8848 46.601V46.5777C32.936 32.1653 45.4563 20.7195 60.2657 20.7195H66.1054C68.0208 20.7195 69.5859 22.2846 69.5859 24.2V73.0432C69.5859 74.9586 71.1509 76.5237 73.0663 76.5237H79.4666C94.7199 76.5237 107.1 88.7403 107.38 103.9C107.404 104.694 107.38 105.489 107.334 106.283Z" fill="url(#paint0_linear)"/>
    <g style="mix-blend-mode:luminosity">
      <path d="M139.172 45.3394V107.707C139.172 112.706 136.462 117.331 132.094 119.784L81.4754 148.375C95.841 140.269 106.399 123.755 107.31 106.306C107.357 105.512 107.38 104.717 107.38 103.9C107.1 88.74 94.7198 76.5234 79.4665 76.5234H73.0662C71.1508 76.5234 69.5858 74.9583 69.5858 73.0429V24.1997C69.5858 22.2843 68.0207 20.7192 66.1053 20.7192H60.2656C45.4561 20.7192 32.9358 32.165 31.8613 46.6241C32.819 29.3153 43.4006 12.7539 57.6728 4.69511L62.765 1.82198C67.0163 -0.560615 72.2019 -0.560615 76.4532 1.82198L132.117 33.2629C136.485 35.6922 139.172 40.3406 139.172 45.3394Z" fill="url(#paint1_linear)"/>
    </g>
    <g style="mix-blend-mode:luminosity">
      <path d="M107.287 106.306C106.399 123.755 95.8177 140.27 81.4521 148.375L76.4299 151.225C72.1786 153.607 66.993 153.607 62.7417 151.225L7.07771 119.784C2.70962 117.331 0 112.683 0 107.684V45.3395C0 40.3407 2.70962 35.7156 7.07771 33.2396L57.6495 4.69519C43.3773 12.754 32.7957 29.3153 31.838 46.6242V46.6476C31.7679 47.4885 31.7446 48.3294 31.7679 49.1937C32.0716 64.3535 44.4284 76.5468 59.6817 76.5468H66.082C67.9974 76.5468 69.5624 78.1118 69.5624 80.0272V128.87C69.5624 130.786 71.1275 132.351 73.0429 132.351H78.8826C93.7154 132.328 106.282 120.812 107.287 106.306Z" fill="url(#paint2_linear)"/>
    </g>
  </g>
  <defs>
    <linearGradient id="paint0_linear" x1="9.56664" y1="8.31641" x2="141.104" y2="133.549" gradientUnits="userSpaceOnUse">
      <stop stop-color="#00FFFF"/>
      <stop offset="1" stop-color="#0CD3F6"/>
    </linearGradient>
    <linearGradient id="paint1_linear" x1="2.31199" y1="37.8769" x2="146.638" y2="82.0605" gradientUnits="userSpaceOnUse">
      <stop offset="0.1773" stop-opacity="0.25"/>
      <stop offset="0.4882" stop-opacity="0.08"/>
      <stop offset="1" stop-color="white" stop-opacity="0"/>
      <stop offset="1" stop-color="white" stop-opacity="0"/>
    </linearGradient>
    <linearGradient id="paint2_linear" x1="136.538" y1="113.959" x2="-8.05401" y2="72.0469" gradientUnits="userSpaceOnUse">
      <stop stop-opacity="0.5"/>
      <stop offset="0.2575" stop-color="#4C4C4C" stop-opacity="0.25"/>
      <stop offset="1" stop-color="white" stop-opacity="0"/>
    </linearGradient>
    <clipPath id="clip0">
      <rect width="139.218" height="153" fill="white"/>
    </clipPath>
  </defs>
</svg>